<?xml version="1.0" encoding="UTF-8" standalone="no"?>
<!-- Created with Inkscape (http://www.inkscape.org/) -->

<svg
   xmlns:dc="http://purl.org/dc/elements/1.1/"
   xmlns:cc="http://creativecommons.org/ns#"
   xmlns:rdf="http://www.w3.org/1999/02/22-rdf-syntax-ns#"
   xmlns:svg="http://www.w3.org/2000/svg"
   xmlns="http://www.w3.org/2000/svg"
   xmlns:sodipodi="http://sodipodi.sourceforge.net/DTD/sodipodi-0.dtd"
   xmlns:inkscape="http://www.inkscape.org/namespaces/inkscape"
   version="1.1"
   id="svg2"
   xml:space="preserve"
   width="90.796875"
   height="18.234375"
   viewBox="0 0 90.796874 18.234375"
   sodipodi:docname="JST_Tool_Vector.svg"
   inkscape:version="0.92.4 (5da689c313, 2019-01-14)"><metadata
     id="metadata8"><rdf:RDF><cc:Work
         rdf:about=""><dc:format>image/svg+xml</dc:format><dc:type
           rdf:resource="http://purl.org/dc/dcmitype/StillImage" /><dc:title></dc:title></cc:Work></rdf:RDF></metadata><defs
     id="defs6"><clipPath
       clipPathUnits="userSpaceOnUse"
       id="clipPath18"><path
         d="M 0,187 H 408.667 V 0 H 0 Z"
         id="path16"
         inkscape:connector-curvature="0" /></clipPath></defs><sodipodi:namedview
     pagecolor="#ffffff"
     bordercolor="#666666"
     borderopacity="1"
     objecttolerance="10"
     gridtolerance="10"
     guidetolerance="10"
     inkscape:pageopacity="0"
     inkscape:pageshadow="2"
     inkscape:window-width="1500"
     inkscape:window-height="937"
     id="namedview4"
     showgrid="false"
     inkscape:pagecheckerboard="true"
     fit-margin-top="0"
     fit-margin-left="0"
     fit-margin-right="0"
     fit-margin-bottom="0"
     inkscape:zoom="5.3543488"
     inkscape:cx="5.7208483"
     inkscape:cy="1.7118672"
     inkscape:window-x="-8"
     inkscape:window-y="-8"
     inkscape:window-maximized="1"
     inkscape:current-layer="g10" /><g
     id="g10"
     inkscape:groupmode="layer"
     inkscape:label="Text"
     transform="matrix(1.3333333,0,0,-1.3333333,-47.984598,73.869764)"><g
       id="g12"><g
         id="g14"
         clip-path="url(#clipPath18)">
<g
   aria-label="JST Tool"
   transform="scale(1,-1)"
   style="font-style:normal;font-variant:normal;font-weight:normal;font-stretch:normal;font-size:2.5px;line-height:1.25;font-family:roboto;-inkscape-font-specification:roboto;font-variant-ligatures:normal;font-variant-caps:normal;font-variant-numeric:normal;font-feature-settings:normal;text-align:center;letter-spacing:0px;word-spacing:0px;writing-mode:lr-tb;text-anchor:middle;display:inline;fill:#000000;fill-opacity:1;stroke:none;stroke-width:0.75"
   id="text820"><path
     d="m 42.369308,-54.6992 h 1.69629 v 9.061524 q 0,1.836914 -1.107422,2.874023 -1.098633,1.03711 -2.935547,1.03711 -1.907227,0 -2.970703,-0.975586 -1.063477,-0.975586 -1.063477,-2.733399 h 1.6875 q 0,1.098633 0.597656,1.713867 0.606446,0.615235 1.749024,0.615235 1.045898,0 1.6875,-0.65918 0.65039,-0.65918 0.659179,-1.845703 z"
     style="font-style:normal;font-variant:normal;font-weight:normal;font-stretch:normal;font-size:18px;font-family:roboto;-inkscape-font-specification:roboto;stroke-width:0.75"
     id="path828"
     inkscape:connector-curvature="0" /><path
     d="m 50.727707,-47.606426 q -2.170899,-0.624024 -3.164063,-1.529297 -0.984375,-0.914063 -0.984375,-2.25 0,-1.511719 1.204102,-2.496094 1.212891,-0.993164 3.146484,-0.993164 1.31836,0 2.34668,0.509766 1.037109,0.509765 1.599609,1.40625 0.571289,0.896484 0.571289,1.959961 h -1.696289 q 0,-1.160157 -0.738281,-1.819336 -0.738281,-0.667969 -2.083008,-0.667969 -1.248047,0 -1.951172,0.553711 -0.694335,0.544922 -0.694335,1.520508 0,0.782226 0.659179,1.327148 0.667969,0.536133 2.258789,0.984375 1.59961,0.448242 2.496094,0.993164 0.905273,0.536133 1.335938,1.256836 0.439453,0.720703 0.439453,1.696289 0,1.555664 -1.212891,2.496094 -1.212891,0.931641 -3.243164,0.931641 -1.318359,0 -2.460938,-0.500977 -1.142578,-0.509766 -1.766601,-1.388672 -0.615234,-0.878906 -0.615234,-1.995117 h 1.696289 q 0,1.160156 0.852539,1.836914 0.861328,0.667969 2.293945,0.667969 1.335937,0 2.047852,-0.544922 0.711914,-0.544922 0.711914,-1.485352 0,-0.940429 -0.65918,-1.450195 -0.65918,-0.518555 -2.390625,-1.019531 z"
     style="font-style:normal;font-variant:normal;font-weight:normal;font-stretch:normal;font-size:18px;font-family:roboto;-inkscape-font-specification:roboto;stroke-width:0.75"
     id="path830"
     inkscape:connector-curvature="0" /><path
     d="m 66.486496,-53.310528 h -4.113281 v 11.408203 H 60.694504 V -53.310528 H 56.590012 V -54.6992 h 9.896484 z"
     style="font-style:normal;font-variant:normal;font-weight:normal;font-stretch:normal;font-size:18px;font-family:roboto;-inkscape-font-specification:roboto;stroke-width:0.75"
     id="path832"
     inkscape:connector-curvature="0" /><path
     d="m 81.006027,-53.310528 h -4.113281 v 11.408203 H 75.214035 V -53.310528 H 71.109543 V -54.6992 h 9.896484 z"
     style="font-style:normal;font-variant:normal;font-weight:normal;font-stretch:normal;font-size:18px;font-family:roboto;-inkscape-font-specification:roboto;stroke-width:0.75"
     id="path834"
     inkscape:connector-curvature="0" /><path
     d="m 81.35759,-46.745098 q 0,-1.397461 0.544922,-2.513672 0.553711,-1.116211 1.529296,-1.722656 0.984375,-0.606446 2.241211,-0.606446 1.942383,0 3.137696,1.344727 1.204101,1.344727 1.204101,3.577148 v 0.114258 q 0,1.388672 -0.536133,2.496094 -0.527343,1.098633 -1.520507,1.713867 -0.984375,0.615235 -2.267578,0.615235 -1.933594,0 -3.137696,-1.344727 -1.195312,-1.344727 -1.195312,-3.55957 z m 1.634765,0.193359 q 0,1.582032 0.729493,2.540039 0.738281,0.958008 1.96875,0.958008 1.239257,0 1.96875,-0.966797 0.729492,-0.975586 0.729492,-2.724609 0,-1.564453 -0.747071,-2.53125 -0.738281,-0.975586 -1.96875,-0.975586 -1.204101,0 -1.942382,0.958008 -0.738282,0.958008 -0.738282,2.742187 z"
     style="font-style:normal;font-variant:normal;font-weight:normal;font-stretch:normal;font-size:18px;font-family:roboto;-inkscape-font-specification:roboto;stroke-width:0.75"
     id="path836"
     inkscape:connector-curvature="0" /><path
     d="m 91.623215,-46.745098 q 0,-1.397461 0.544922,-2.513672 0.553711,-1.116211 1.529296,-1.722656 0.984375,-0.606446 2.241211,-0.606446 1.942383,0 3.137696,1.344727 1.2041,1.344727 1.2041,3.577148 v 0.114258 q 0,1.388672 -0.536132,2.496094 -0.527343,1.098633 -1.520507,1.713867 -0.984375,0.615235 -2.267578,0.615235 -1.933594,0 -3.137696,-1.344727 -1.195312,-1.344727 -1.195312,-3.55957 z m 1.634765,0.193359 q 0,1.582032 0.729493,2.540039 0.738281,0.958008 1.96875,0.958008 1.239257,0 1.96875,-0.966797 0.729492,-0.975586 0.729492,-2.724609 0,-1.564453 -0.747071,-2.53125 -0.738281,-0.975586 -1.96875,-0.975586 -1.204101,0 -1.942382,0.958008 -0.738282,0.958008 -0.738282,2.742187 z"
     style="font-style:normal;font-variant:normal;font-weight:normal;font-stretch:normal;font-size:18px;font-family:roboto;-inkscape-font-specification:roboto;stroke-width:0.75"
     id="path838"
     inkscape:connector-curvature="0" /><path
     d="m 104.08611,-41.902325 h -1.62598 v -13.5 h 1.62598 z"
     style="font-style:normal;font-variant:normal;font-weight:normal;font-stretch:normal;font-size:18px;font-family:roboto;-inkscape-font-specification:roboto;stroke-width:0.75"
     id="path840"
     inkscape:connector-curvature="0" /></g>
<text
   xml:space="preserve"
   style="font-style:normal;font-variant:normal;font-weight:normal;font-stretch:normal;font-size:2.5px;line-height:1.25;font-family:roboto;-inkscape-font-specification:roboto;font-variant-ligatures:normal;font-variant-caps:normal;font-variant-numeric:normal;font-feature-settings:normal;text-align:center;letter-spacing:0px;word-spacing:0px;writing-mode:lr-tb;text-anchor:middle;display:none;fill:#000000;fill-opacity:1;stroke:none;stroke-width:0.75"
   x="70.485519"
   y="-41.902325"
   id="text826"
   transform="scale(1,-1)"><tspan
     sodipodi:role="line"
     id="tspan824"
     x="70.485519"
     y="-41.902325"
     style="font-style:normal;font-variant:normal;font-weight:normal;font-stretch:normal;font-size:18px;font-family:roboto;-inkscape-font-specification:roboto;stroke-width:0.75">JST Tool</tspan></text>
</g></g></g></svg>