<?xml version="1.0" encoding="UTF-8" standalone="no"?>
<!-- Created with Inkscape (http://www.inkscape.org/) -->

<svg
   xmlns:dc="http://purl.org/dc/elements/1.1/"
   xmlns:cc="http://creativecommons.org/ns#"
   xmlns:rdf="http://www.w3.org/1999/02/22-rdf-syntax-ns#"
   xmlns:svg="http://www.w3.org/2000/svg"
   xmlns="http://www.w3.org/2000/svg"
   xmlns:sodipodi="http://sodipodi.sourceforge.net/DTD/sodipodi-0.dtd"
   xmlns:inkscape="http://www.inkscape.org/namespaces/inkscape"
   version="1.1"
   id="svg2"
   xml:space="preserve"
   width="507.33533"
   height="130.23253"
   viewBox="0 0 507.33532 130.23253"
   sodipodi:docname="SparkFun_Vector_Logo.svg"
   inkscape:version="0.92.4 (5da689c313, 2019-01-14)"><metadata
     id="metadata8"><rdf:RDF><cc:Work
         rdf:about=""><dc:format>image/svg+xml</dc:format><dc:type
           rdf:resource="http://purl.org/dc/dcmitype/StillImage" /><dc:title></dc:title></cc:Work></rdf:RDF></metadata><defs
     id="defs6"><clipPath
       clipPathUnits="userSpaceOnUse"
       id="clipPath18"><path
         d="M 0,187 H 408.667 V 0 H 0 Z"
         id="path16"
         inkscape:connector-curvature="0" /></clipPath></defs><sodipodi:namedview
     pagecolor="#ffffff"
     bordercolor="#666666"
     borderopacity="1"
     objecttolerance="10"
     gridtolerance="10"
     guidetolerance="10"
     inkscape:pageopacity="0"
     inkscape:pageshadow="2"
     inkscape:window-width="1500"
     inkscape:window-height="937"
     id="namedview4"
     showgrid="false"
     inkscape:pagecheckerboard="true"
     fit-margin-top="0"
     fit-margin-left="0"
     fit-margin-right="0"
     fit-margin-bottom="0"
     inkscape:zoom="0.94652408"
     inkscape:cx="110.84816"
     inkscape:cy="118.45227"
     inkscape:window-x="-8"
     inkscape:window-y="-8"
     inkscape:window-maximized="1"
     inkscape:current-layer="g14" /><g
     id="g10"
     inkscape:groupmode="layer"
     inkscape:label="SparkFun Vector Logo_with Start Something"
     transform="matrix(1.3333333,0,0,-1.3333333,-5.2349332,136.44693)"><g
       id="g12"><g
         id="g14"
         clip-path="url(#clipPath18)"><g
           id="g24"
           transform="translate(80.049,43.0088)"><path
             d="m 0,0 c -8.804,0 -11.852,7.641 -11.852,15.66 0,8.018 2.87,15.955 11.757,15.955 8.693,0 11.841,-8.028 11.841,-15.955 C 11.746,7.641 8.886,0 0,0 m 2.869,41.837 c -6.12,0 -11.372,-2.286 -14.721,-7.642 h -0.189 v 6.308 l -12.9,-2.301 V -26.28 l 13.563,-12.068 10e-4,35.569 h 0.199 c 3.34,-4.873 8.778,-7.449 14.805,-7.449 14.521,0 21.693,12.315 21.693,25.51 0,14.04 -6.982,26.555 -22.451,26.555"
             style="fill:#191413;fill-opacity:1;fill-rule:nonzero;stroke:none"
             id="path26"
             inkscape:connector-curvature="0" /></g><g
           id="g28"
           transform="translate(34.0192,63.835)"><path
             d="m 0,0 c -7.636,1.808 -15.393,2.481 -15.393,7.348 0,4.11 4.494,4.596 7.562,4.596 4.867,0 8.879,-1.442 9.27,-6.701 H 14.333 C 13.276,17.384 3.253,21.01 -7.459,21.01 c -10.608,0 -21.489,-3.245 -21.489,-15.867 0,-8.776 7.733,-11.358 15.668,-13.178 9.653,-2.004 15.385,-3.538 15.385,-7.643 0,-4.775 -5.069,-6.304 -8.889,-6.304 -5.253,0 -10.419,2.487 -10.419,8.317 h -12.89 c 0.484,-13.098 11.75,-17.389 23.206,-17.389 11.181,0 22.56,4.199 22.56,17.196 C 15.673,-4.691 7.926,-1.826 0,0"
             style="fill:#191413;fill-opacity:1;fill-rule:nonzero;stroke:none"
             id="path30"
             inkscape:connector-curvature="0" /></g><g
           id="g32"
           transform="translate(142.133,53.2197)"><path
             d="m 0,0 c 0,-3.049 -0.381,-11.368 -10.978,-11.368 -4.402,0 -8.328,1.338 -8.328,6.306 0,4.965 3.833,6.505 8.037,7.256 C -7.07,2.967 -2.292,3.062 0,5.071 Z m 13.576,17.594 c 0,11.84 -11.853,14.032 -21.696,14.032 -11.083,0 -22.456,-3.916 -23.22,-16.531 h 13.571 c 0.481,5.349 3.725,7.464 8.986,7.464 4.77,0 8.783,-0.963 8.783,-6.7 0.571,-11.078 -32.682,0.96 -32.859,-21.482 0,-10.142 7.353,-14.815 16.804,-14.815 6.121,0 12.336,1.619 16.626,6.105 0.106,-1.613 0.489,-3.242 0.967,-4.771 h 13.748 c -1.235,2.004 -1.71,6.499 -1.71,10.98 z"
             style="fill:#191413;fill-opacity:1;fill-rule:nonzero;stroke:none"
             id="path34"
             inkscape:connector-curvature="0" /></g><g
           id="g36"
           transform="translate(176.4723,74.3374)"><path
             d="m 0,0 h -0.182 v 9.174 l -12.9,-2.3 V -40.222 H 0.483 v 22.261 c 0,8.792 3.35,15.864 13.378,15.864 1.627,0 3.628,-0.2 4.875,-0.479 V 10.035 C 17.778,10.316 16.824,10.508 15.77,10.508 8.99,10.508 2.587,6.214 0,0"
             style="fill:#191413;fill-opacity:1;fill-rule:nonzero;stroke:none"
             id="path38"
             inkscape:connector-curvature="0" /></g><g
           id="g40"
           transform="translate(247.1706,83.5112)"><path
             d="m 0,0 h -16.054 l -17.103,-17.778 v 36.602 l -13.566,-7.442 v -60.778 h 13.565 v 17.001 l 5.263,5.07 13.558,-22.071 H 2.092 l -20.729,31.232 z"
             style="fill:#191413;fill-opacity:1;fill-rule:nonzero;stroke:none"
             id="path42"
             inkscape:connector-curvature="0" /></g><g
           id="g44"
           transform="translate(257.5163,87.3237)"><path
             d="m 0,0 v -3.813 h -4.135 l -9.244,-9.075 H 0 v -40.32 h 13.568 v 40.32 h 9.362 v 9.075 h -9.362 v 2.96 c 0,4.111 1.436,5.642 5.17,5.642 1.609,0 3.336,-0.089 4.958,-0.294 v 10.132 c -2.284,0.093 -4.78,0.384 -7.157,0.384 C 5.451,15.011 0,8.798 0,0"
             style="fill:#191413;fill-opacity:1;fill-rule:nonzero;stroke:none"
             id="path46"
             inkscape:connector-curvature="0" /></g><g
           id="g48"
           transform="translate(317.0221,57.6206)"><path
             d="m 0,0 c 0,-10.025 -3.145,-14.138 -10.512,-14.138 -6.387,0 -8.683,4.004 -8.683,12.132 v 27.897 h -13.573 v -30.39 c 0,-12.226 3.627,-20.34 18.054,-20.34 5.734,0 11.666,2.575 15.103,8.213 h 0.283 v -6.879 H 13.575 V 25.891 H 0 Z"
             style="fill:#191413;fill-opacity:1;fill-rule:nonzero;stroke:none"
             id="path50"
             inkscape:connector-curvature="0" /></g><g
           id="g52"
           transform="translate(366.3717,84.8452)"><path
             d="m 0,0 c -5.741,0 -11.659,-2.58 -15.098,-8.214 h -0.285 v 6.88 H -28.284 V -50.73 h 13.579 v 25.885 c 0,10.039 3.142,14.149 10.497,14.149 6.39,0 8.695,-4.012 8.695,-12.137 V -50.73 h 13.569 v 30.393 C 18.056,-8.12 14.424,0 0,0"
             style="fill:#191413;fill-opacity:1;fill-rule:nonzero;stroke:none"
             id="path54"
             inkscape:connector-curvature="0" /></g><g
           id="g64"
           transform="translate(83.0446,9.5732)" /><g
           id="g68"
           transform="translate(103.3049,21.8574)" /><g
           id="g72"
           transform="translate(126.423,10.374)" /><g
           id="g76"
           transform="translate(146.1813,18.4707)" /><g
           id="g80"
           transform="translate(163.9635,21.8574)" /><g
           id="g84"
           transform="translate(199.8273,9.5732)" /><g
           id="g88"
           transform="translate(228.3649,7.2227)" /><g
           id="g92"
           transform="translate(251.7643,9.9346)" /><g
           id="g96"
           transform="translate(271.3239,21.8574)" /><g
           id="g100"
           transform="translate(289.5807,21.8574)" /><g
           id="g104"
           transform="translate(310.7819,21.8574)" /><g
           id="g108"
           transform="translate(333.4538,21.8574)" /><g
           id="g112"
           transform="translate(356.7321,4.4404)" /><g
           id="g116"
           transform="translate(380.8942,11.2559)" /></g></g></g></svg>