<?xml version="1.0" encoding="UTF-8" standalone="no"?>
<!-- Created with Inkscape (http://www.inkscape.org/) -->

<svg
   xmlns:dc="http://purl.org/dc/elements/1.1/"
   xmlns:cc="http://creativecommons.org/ns#"
   xmlns:rdf="http://www.w3.org/1999/02/22-rdf-syntax-ns#"
   xmlns:svg="http://www.w3.org/2000/svg"
   xmlns="http://www.w3.org/2000/svg"
   xmlns:sodipodi="http://sodipodi.sourceforge.net/DTD/sodipodi-0.dtd"
   xmlns:inkscape="http://www.inkscape.org/namespaces/inkscape"
   version="1.1"
   id="svg2"
   xml:space="preserve"
   width="56.414062"
   height="17.53125"
   viewBox="0 0 56.414062 17.53125"
   sodipodi:docname="Version_Vector.svg"
   inkscape:version="0.92.4 (5da689c313, 2019-01-14)"><metadata
     id="metadata8"><rdf:RDF><cc:Work
         rdf:about=""><dc:format>image/svg+xml</dc:format><dc:type
           rdf:resource="http://purl.org/dc/dcmitype/StillImage" /><dc:title /></cc:Work></rdf:RDF></metadata><defs
     id="defs6"><clipPath
       clipPathUnits="userSpaceOnUse"
       id="clipPath18"><path
         d="M 0,187 H 408.667 V 0 H 0 Z"
         id="path16"
         inkscape:connector-curvature="0" /></clipPath></defs><sodipodi:namedview
     pagecolor="#ffffff"
     bordercolor="#666666"
     borderopacity="1"
     objecttolerance="10"
     gridtolerance="10"
     guidetolerance="10"
     inkscape:pageopacity="0"
     inkscape:pageshadow="2"
     inkscape:window-width="1500"
     inkscape:window-height="937"
     id="namedview4"
     showgrid="false"
     inkscape:pagecheckerboard="true"
     fit-margin-top="0"
     fit-margin-left="0"
     fit-margin-right="0"
     fit-margin-bottom="0"
     inkscape:zoom="5.3543488"
     inkscape:cx="23.277807"
     inkscape:cy="16.652994"
     inkscape:window-x="-8"
     inkscape:window-y="-8"
     inkscape:window-maximized="1"
     inkscape:current-layer="g14" /><g
     id="g10"
     inkscape:groupmode="layer"
     inkscape:label="Version"
     transform="matrix(1.3333333,0,0,-1.3333333,-65.539285,73.166639)"><g
       id="g12"><g
         id="g14"
         clip-path="url(#clipPath18)"><g
   aria-label="v2.1e"
   transform="scale(1,-1)"
   style="font-style:normal;font-variant:normal;font-weight:normal;font-stretch:normal;font-size:2.5px;line-height:1.25;font-family:roboto;-inkscape-font-specification:roboto;font-variant-ligatures:normal;font-variant-caps:normal;font-variant-numeric:normal;font-feature-settings:normal;text-align:center;letter-spacing:0px;word-spacing:0px;writing-mode:lr-tb;text-anchor:middle;fill:#000000;fill-opacity:1;stroke:none;stroke-width:0.75"
   id="text856"><path
     d="m 53.23259,-44.108379 2.355468,-7.303711 h 1.661133 l -3.410156,9.509765 h -1.239258 l -3.445312,-9.509765 h 1.661133 z"
     style="font-style:normal;font-variant:normal;font-weight:normal;font-stretch:normal;font-size:18px;font-family:roboto;-inkscape-font-specification:roboto;stroke-width:0.75"
     id="path822"
     inkscape:connector-curvature="0" /><path
     d="m 67.031418,-41.902325 h -8.384766 v -1.168945 l 4.429688,-4.921875 q 0.984375,-1.116211 1.353515,-1.810547 0.37793,-0.703125 0.37793,-1.450195 0,-1.001953 -0.606445,-1.643555 -0.606446,-0.641601 -1.617188,-0.641601 -1.21289,0 -1.889648,0.694336 -0.667969,0.685546 -0.667969,1.916015 h -1.625977 q 0,-1.766601 1.13379,-2.856445 1.142578,-1.089844 3.049804,-1.089844 1.78418,0 2.821289,0.94043 1.03711,0.93164 1.03711,2.487304 0,1.889649 -2.408203,4.5 l -3.427735,3.717774 h 6.424805 z"
     style="font-style:normal;font-variant:normal;font-weight:normal;font-stretch:normal;font-size:18px;font-family:roboto;-inkscape-font-specification:roboto;stroke-width:0.75"
     id="path824"
     inkscape:connector-curvature="0" /><path
     d="m 68.973801,-42.754864 q 0,-0.421875 0.246093,-0.703125 0.254883,-0.28125 0.75586,-0.28125 0.500976,0 0.755859,0.28125 0.263672,0.28125 0.263672,0.703125 0,0.404297 -0.263672,0.676758 -0.254883,0.272461 -0.755859,0.272461 -0.500977,0 -0.75586,-0.272461 -0.246093,-0.272461 -0.246093,-0.676758 z"
     style="font-style:normal;font-variant:normal;font-weight:normal;font-stretch:normal;font-size:18px;font-family:roboto;-inkscape-font-specification:roboto;display:inline;stroke-width:0.75"
     id="path826"
     inkscape:connector-curvature="0" /><path
     d="M 78.861496,-41.902325 H 77.22673 v -10.836914 l -3.27832,1.204102 V -53.0117 l 4.658203,-1.749023 h 0.254883 z"
     style="font-style:normal;font-variant:normal;font-weight:normal;font-stretch:normal;font-size:18px;font-family:roboto;-inkscape-font-specification:roboto;display:inline;stroke-width:0.75"
     id="path828"
     inkscape:connector-curvature="0" /><path
     d="m 87.756027,-41.726543 q -1.933594,0 -3.146484,-1.265625 -1.212891,-1.274414 -1.212891,-3.401368 v -0.298828 q 0,-1.415039 0.536133,-2.522461 0.544922,-1.116211 1.511719,-1.740234 0.975586,-0.632813 2.109375,-0.632813 1.854492,0 2.882812,1.22168 1.028321,1.22168 1.028321,3.498047 v 0.676758 h -6.442383 q 0.03516,1.40625 0.817383,2.276367 0.791015,0.861328 2.003906,0.861328 0.861328,0 1.458984,-0.351562 0.597656,-0.351563 1.045899,-0.931641 l 0.993164,0.773438 q -1.195313,1.836914 -3.585938,1.836914 z m -0.202148,-8.525391 q -0.984375,0 -1.652344,0.720703 -0.667969,0.711914 -0.826172,2.003906 h 4.763672 v -0.123047 q -0.07031,-1.239257 -0.667969,-1.916015 -0.597656,-0.685547 -1.617187,-0.685547 z"
     style="font-style:normal;font-variant:normal;font-weight:normal;font-stretch:normal;font-size:18px;font-family:roboto;-inkscape-font-specification:roboto;display:inline;stroke-width:0.75"
     id="path830"
     inkscape:connector-curvature="0" /></g>
<text
   transform="scale(1,-1)"
   id="text820"
   y="-41.902325"
   x="70.485519"
   style="font-style:normal;font-variant:normal;font-weight:normal;font-stretch:normal;font-size:2.5px;line-height:1.25;font-family:roboto;-inkscape-font-specification:roboto;font-variant-ligatures:normal;font-variant-caps:normal;font-variant-numeric:normal;font-feature-settings:normal;text-align:center;letter-spacing:0px;word-spacing:0px;writing-mode:lr-tb;text-anchor:middle;display:none;fill:#000000;fill-opacity:1;stroke:none;stroke-width:0.75"
   xml:space="preserve"><tspan
     style="font-style:normal;font-variant:normal;font-weight:normal;font-stretch:normal;font-size:18px;font-family:roboto;-inkscape-font-specification:roboto;stroke-width:0.75"
     y="-41.902325"
     x="70.485519"
     id="tspan818"
     sodipodi:role="line">v2.1e</tspan></text>
</g></g></g></svg>